<svg xmlns="http://www.w3.org/2000/svg" viewBox="0 0 216 234"><defs><style>.cls-1{fill:#237bad;}.cls-2{fill:#489fd8;}</style></defs><title>Asset 1</title><g id="Layer_2" data-name="Layer 2"><g id="Layer_2-2" data-name="Layer 2"><path class="cls-1" d="M72,13.24V220.76C72,228.07,77.47,234,84.22,234h47.56c6.75,0,12.22-5.93,12.22-13.24V13.24C144,5.93,138.53,0,131.78,0H84.22C77.47,0,72,5.93,72,13.24Z"/><path class="cls-1" d="M142.58,9.33S144,108,72,135v-9Z"/><path class="cls-1" d="M72,225s0-99,72-126v9Z"/><path class="cls-2" d="M71,10.28C68.14,28.8,56.63,66.35,10.75,71.43A12.17,12.17,0,0,0,0,83.56v48.08a12.22,12.22,0,0,0,12.9,12.21c34.08-2,124.38-17.89,130.75-131A12.22,12.22,0,0,0,131.44,0H83.1A12.19,12.19,0,0,0,71,10.28Z"/><path class="cls-2" d="M144.63,223.59c2.89-18.53,14.41-56.07,60.29-61.15a12.17,12.17,0,0,0,10.75-12.13V102.22A12.22,12.22,0,0,0,202.77,90C168.69,92,78.38,107.9,72,221a12.22,12.22,0,0,0,12.21,12.88h48.34A12.18,12.18,0,0,0,144.63,223.59Z"/><path class="cls-1" d="M168.23,234h35.55A12.22,12.22,0,0,0,216,221.78V185.45a12.21,12.21,0,0,0-15.71-11.72c-14.3,4.33-34.54,15.49-43.7,44.32A12.23,12.23,0,0,0,168.23,234Z"/></g></g></svg>